<?xml version="1.0" encoding="UTF-8" standalone="no"?>
<!-- Created with Inkscape (http://www.inkscape.org/) -->

<svg
   version="1.1"
   id="svg1"
   width="628.66669"
   height="690.66669"
   viewBox="0 0 628.66669 690.66669"
   sodipodi:docname="omar _logo3.svg"
   inkscape:version="1.3.2 (091e20e, 2023-11-25, custom)"
   xmlns:inkscape="http://www.inkscape.org/namespaces/inkscape"
   xmlns:sodipodi="http://sodipodi.sourceforge.net/DTD/sodipodi-0.dtd"
   xmlns="http://www.w3.org/2000/svg"
   xmlns:svg="http://www.w3.org/2000/svg">
  <defs
     id="defs1" />
  <sodipodi:namedview
     id="namedview1"
     pagecolor="#ffffff"
     bordercolor="#000000"
     borderopacity="0.25"
     inkscape:showpageshadow="2"
     inkscape:pageopacity="0.0"
     inkscape:pagecheckerboard="0"
     inkscape:deskcolor="#d1d1d1"
     showgrid="false"
     inkscape:zoom="1.5477799"
     inkscape:cx="314.32118"
     inkscape:cy="345.33334"
     inkscape:window-width="2160"
     inkscape:window-height="1346"
     inkscape:window-x="-11"
     inkscape:window-y="-11"
     inkscape:window-maximized="1"
     inkscape:current-layer="g1" />
  <g
     inkscape:groupmode="layer"
     inkscape:label="Image"
     id="g1">
    <path
       style="fill:#000000"
       d="m 233.92339,591.7857 c -5.11562,-1.9104 -8.42095,-5.13234 -10.96423,-10.68759 -2.39553,-5.23254 -2.50978,-13.4461 -0.26953,-19.3773 3.15223,-8.34568 9.6611,-12.67663 18.97704,-12.62717 6.31931,0.0336 9.06905,1.04687 13.21757,4.87084 4.61766,4.25642 6.07858,8.2576 6.09833,16.7022 0.0145,6.19617 -0.18434,7.42106 -1.73151,10.66667 -2.03963,4.2787 -5.08808,7.54123 -8.88245,9.50623 -3.40911,1.76549 -12.80384,2.30598 -16.44522,0.94612 z m 15.30728,-5.97194 c 7.23565,-4.78832 8.96798,-19.1038 3.21918,-26.6023 -2.84083,-3.70547 -5.97262,-5.22605 -10.90662,-5.2955 -8.98235,-0.12644 -14.87656,6.64239 -14.87656,17.08406 0,7.23274 3.01313,13.01679 8.13582,15.61765 4.11939,2.09147 10.59848,1.73047 14.42818,-0.80391 z m 20.25992,-14.9396 0.17609,-21.20748 3.19145,-0.2042 3.19146,-0.20421 1.88709,4.20421 c 1.0379,2.31231 4.3579,9.8292 7.37778,16.7042 4.93588,11.23693 6.63256,14.18619 6.71174,11.66667 0.0144,-0.45833 3.26135,-7.88333 7.21543,-16.5 l 7.18925,-15.66667 3.1179,-0.20319 3.1179,-0.2032 v 21.36987 21.36986 h -2.32189 -2.32189 l -0.17811,-16.83334 -0.17811,-16.83333 -3.93904,8.66667 c -4.14043,9.10975 -6.3206,13.94828 -9.38721,20.83333 -2.65347,5.95748 -3.96609,5.76857 -6.9538,-1.00073 -1.25402,-2.84126 -4.47902,-10.02566 -7.16666,-15.96531 -2.68765,-5.93966 -4.95371,-11.18966 -5.03571,-11.66667 -0.082,-0.47701 -0.30699,6.63271 -0.5,15.79938 l -0.35092,16.66666 -2.50942,0.20748 -2.50942,0.20747 z m 50.15739,19.29252 c 0.25255,-1.00833 1.33427,-4.08333 2.40383,-6.83333 1.06955,-2.75 4.43157,-11.45 7.47115,-19.33333 l 5.52651,-14.33334 2.43167,-0.20431 c 1.89435,-0.15916 2.59288,0.0969 3.16123,1.1589 0.69476,1.29816 16.02431,40.6605 16.02431,41.14629 0,0.12785 -1.30899,0.23246 -2.90885,0.23246 h -2.90886 l -1.96644,-5.5 -1.96644,-5.5 h -9.19986 -9.19987 l -1.98676,5.5 -1.98676,5.5 h -2.67702 c -2.58726,0 -2.66162,-0.0615 -2.21784,-1.83334 z m 24.57893,-15.5 c -0.11565,-1.08656 -6.03783,-17.36648 -6.47731,-17.80597 -0.14776,-0.14775 -0.88745,1.47314 -1.64375,3.602 -0.7563,2.12885 -2.27076,6.31439 -3.36546,9.3012 -1.0947,2.98681 -1.79898,5.62195 -1.56507,5.85586 0.23392,0.23392 3.29017,0.34017 6.79166,0.23611 5.1882,-0.15418 6.34667,-0.37426 6.25993,-1.1892 z m 18.59707,-3.83333 0.17603,-21.16667 5.66667,-0.20939 c 10.66184,-0.39396 14.89084,0.86162 18.27203,5.42495 1.06579,1.4384 1.39464,2.8654 1.39464,6.05189 0,3.55685 -0.27919,4.53571 -1.89959,6.66016 -1.04477,1.36977 -2.91977,2.97698 -4.16667,3.57158 -2.45606,1.17121 -2.80805,1.81724 -1.30449,2.39421 0.89515,0.3435 3.29643,3.78064 9.28208,13.28622 1.3321,2.11545 2.422,4.14045 2.422,4.5 0,0.35954 -1.275,0.65352 -2.83333,0.65328 l -2.83334,-4.4e-4 -3.62337,-6.16623 c -5.97221,-10.16348 -7.6772,-11.7687 -12.54329,-11.80927 l -2.83334,-0.0236 v 9 9 h -2.67603 -2.67603 z m 17.45947,-3.45313 c 2.40353,-2.25799 3.23781,-5.63995 2.07678,-8.41868 -1.33715,-3.20027 -3.55591,-4.33685 -9.31663,-4.77253 l -5.04359,-0.38144 v 7.83348 7.83348 l 5.28243,-0.23989 c 4.4817,-0.20352 5.54293,-0.48462 7.00101,-1.85442 z m -81.68774,-42.72209 c -9.94683,-0.88842 -18.03254,-3.17684 -28.26237,-7.99883 -17.31253,-8.16052 -31.1683,-21.77545 -39.98171,-39.28675 -2.16204,-4.29573 -2.45355,-5.41054 -2.17443,-8.31539 0.29013,-3.01942 0.66837,-3.67278 3.78574,-6.5392 1.90487,-1.75154 3.99543,-3.18461 4.64568,-3.18461 0.83447,0 2.31105,2.20632 5.01935,7.5 7.0727,13.82435 13.03978,21.38731 22.49665,28.51327 12.96734,9.77119 27.17456,14.30005 44.54206,14.19878 13.91677,-0.0812 25.04221,-3.22159 36.36785,-10.26575 6.66775,-4.14711 16.12772,-13.06912 20.08869,-18.9463 11.62571,-17.24991 15.80613,-40.81632 10.29858,-58.05645 -4.34795,-13.61025 -9.84129,-21.64236 -25.11004,-36.71469 l -12.2622,-12.10447 -4.19144,1.31661 c -9.96996,3.13176 -16.49275,4.12214 -27.19144,4.12858 -5.68334,0.003 -12.24039,-0.36735 -14.57122,-0.82393 -17.52831,-3.4336 -33.43093,-11.55039 -45.05772,-22.99772 -15.42294,-15.18489 -23.49118,-32.04776 -25.77648,-53.87364 -2.26829,-21.66339 6.51272,-46.02824 22.92021,-63.59722 l 4.56651,-4.88978 -5.33402,-6.04388 C 234.09061,216.11265 227.85582,205.09084 224.3397,192.95745 218.19945,171.76874 220,150.70406 229.63563,131 c 7.51064,-15.35863 20.07963,-28.69441 34.80843,-36.931982 25.2597,-14.127315 55.4599,-14.171731 80.22262,-0.117984 14.52911,8.245806 27.7938,21.190796 36.97748,36.086276 4.12185,6.68544 4.10568,8.79807 -0.10463,13.67486 -1.71993,1.99219 -3.31292,3.62217 -3.53998,3.62217 -0.22706,0 -4.2887,-4.875 -9.02587,-10.83334 -10.93994,-13.76007 -19.05021,-21.97921 -26.38681,-26.74103 -16.80744,-10.908861 -36.95003,-13.831242 -56.25353,-8.16152 -23.4599,6.89051 -40.74057,24.71967 -47.55968,49.06922 -1.62017,5.78527 -1.77365,7.37177 -1.77365,18.33333 0,10.4743 0.1963,12.71861 1.54397,17.65197 5.72281,20.94933 18.11527,36.36227 36.45603,45.34168 9.86922,4.83184 16.92741,6.69074 27.1452,7.14916 12.021,0.53932 20.17454,-1.01856 32.18813,-6.15012 10.09048,-4.3101 20.69083,-13.94723 34.64034,-31.49268 4.73717,-5.95834 8.79881,-10.83334 9.02587,-10.83334 0.22706,0 1.82005,1.62998 3.53998,3.62217 4.1715,4.83183 4.21313,7.01107 0.25652,13.42849 -4.4456,7.21055 -8.25563,12.10718 -14.31055,18.39183 l -5.5647,5.77583 4.96362,5.22417 c 8.74433,9.20335 12.42025,14.4734 17.27667,24.769 12.10106,25.65423 9.59999,55.31566 -6.72602,79.76735 -4.18615,6.26966 -14.22227,16.62194 -20.39187,21.03426 -2.77375,1.98371 -5.04319,3.81293 -5.04319,4.06492 0,0.252 3.49149,3.86254 7.75886,8.02342 21.3497,20.81694 29.94712,36.68426 32.36672,59.73579 1.80522,17.19833 -2.80892,35.93146 -12.59443,51.13261 -17.64876,27.4162 -47.84918,41.97681 -80.93545,39.02162 z m 16.82233,-161.32811 c 19.85278,-2.27496 37.73305,-13.02822 49.13236,-29.54838 11.92675,-17.28454 15.63484,-40.85388 9.35283,-59.4483 -3.59182,-10.63159 -10.88771,-21.90854 -19.78963,-30.588 l -3.33809,-3.25468 -2.22108,1.36399 c -13.98792,8.59013 -32.86822,13.58117 -47.22109,12.48298 -12.55766,-0.96083 -23.64021,-4.01393 -34.51361,-9.50803 l -6.25976,-3.16293 -4.96629,5.17386 c -9.83698,10.24812 -15.78561,21.69256 -18.62185,35.82614 -1.76902,8.81543 -1.07915,21.51769 1.66033,30.57096 7.25608,23.97942 24.36495,40.8524 48.36785,47.701 9.95185,2.83949 18.34442,3.54573 28.41803,2.39139 z"
       id="path1" />
  </g>
</svg>
